<?xml version="1.0" encoding="UTF-8"?>
<svg version="1.1" xmlns="http://www.w3.org/2000/svg" width="875" height="285">
<path d="M0 0 C9.24 0 18.48 0 28 0 C29.87817151 4.38240019 31.38036255 7.89690815 32.51806641 12.36865234 C32.7748819 13.36593353 33.03169739 14.36321472 33.29629517 15.39071655 C33.6949025 16.97235092 33.6949025 16.97235092 34.1015625 18.5859375 C34.38349457 19.68346344 34.66542664 20.78098938 34.9559021 21.91177368 C35.8509137 25.39818168 36.73853525 28.88640989 37.625 32.375 C38.51936522 35.88480773 39.41535779 39.39417102 40.31552124 42.90249634 C40.87444848 45.08173968 41.42989637 47.26187883 41.9815979 49.44296265 C42.23210907 50.42133087 42.48262024 51.3996991 42.74072266 52.40771484 C42.96039703 53.27262543 43.18007141 54.13753601 43.40640259 55.02865601 C43.82533 56.98306359 43.82533 56.98306359 45 58 C45.10957031 57.45472656 45.21914063 56.90945312 45.33203125 56.34765625 C45.49058594 55.59355469 45.64914062 54.83945313 45.8125 54.0625 C45.96332031 53.33160156 46.11414063 52.60070312 46.26953125 51.84765625 C46.88122271 49.46304088 47.59474609 47.20145586 48.39282227 44.8762207 C49.91656746 40.33541484 51.21614521 35.76079345 52.4453125 31.1328125 C52.66065643 30.33140839 52.87600037 29.53000427 53.09786987 28.70431519 C53.77612997 26.17855213 54.45075759 23.65183822 55.125 21.125 C55.80702413 18.57691548 56.4898219 16.02904168 57.17355347 13.48141479 C57.59650218 11.90467203 58.01836138 10.32763651 58.43899536 8.75027466 C59.22728935 5.80531237 60.0356607 2.89301789 61 0 C64.96930989 -0.02465881 68.93859034 -0.04284023 72.90795898 -0.05493164 C74.25920386 -0.05997057 75.61044326 -0.06680177 76.96166992 -0.07543945 C78.90020434 -0.08752419 80.838778 -0.09269828 82.77734375 -0.09765625 C84.52905884 -0.10551147 84.52905884 -0.10551147 86.31616211 -0.11352539 C89 0 89 0 90 1 C90.09522418 3.86091818 90.12553326 6.69763621 90.11352539 9.55883789 C90.11367142 10.45631241 90.11381744 11.35378693 90.1139679 12.27845764 C90.11326842 15.25988134 90.10547441 18.2412434 90.09765625 21.22265625 C90.09579219 23.28388942 90.09436823 25.34512304 90.09336853 27.40635681 C90.08954237 32.8430401 90.07971126 38.27969686 90.06866455 43.71636963 C90.05845253 49.25947714 90.05387136 54.80258892 90.04882812 60.34570312 C90.03808908 71.23048231 90.02049149 82.1152348 90 93 C84.06 93 78.12 93 72 93 C71.97494385 91.26919189 71.9498877 89.53838379 71.92407227 87.75512695 C71.84007246 82.02744879 71.75181076 76.29984684 71.66066074 70.57227802 C71.60556853 67.10070672 71.55217109 63.62912681 71.50268555 60.1574707 C71.44567955 56.16348453 71.38123262 52.1696482 71.31640625 48.17578125 C71.29969376 46.93290848 71.28298126 45.69003571 71.26576233 44.40950012 C71.2358445 42.66826118 71.2358445 42.66826118 71.20532227 40.8918457 C71.18200584 39.36295464 71.18200584 39.36295464 71.15821838 37.80317688 C71.00622378 35.11026758 70.60010647 32.62596155 70 30 C69.16982455 33.42183168 68.33979985 36.84369985 67.51000977 40.265625 C66.79099765 43.23060295 66.0713486 46.1954254 65.35131836 49.16015625 C63.53535084 56.64124949 61.72834879 64.12426607 59.9453125 71.61328125 C59.62451703 72.95680781 59.30363684 74.30031415 58.98266602 75.64379883 C58.37606794 78.18590989 57.77232208 80.72870349 57.17163086 83.2722168 C56.76376343 84.97825073 56.76376343 84.97825073 56.34765625 86.71875 C56.11054932 87.71841797 55.87344238 88.71808594 55.62915039 89.74804688 C55 92 55 92 54 93 C52.58429877 93.08651611 51.164405 93.10704904 49.74609375 93.09765625 C48.89208984 93.09443359 48.03808594 93.09121094 47.15820312 93.08789062 C46.26037109 93.07951172 45.36253906 93.07113281 44.4375 93.0625 C43.53580078 93.05798828 42.63410156 93.05347656 41.70507812 93.04882812 C39.46998686 93.03700225 37.23502563 93.0205222 35 93 C29.5543104 71.35951244 24.23607229 49.69229949 19 28 C18.67 49.45 18.34 70.9 18 93 C12.06 93 6.12 93 0 93 C0 62.31 0 31.62 0 0 Z M71 23 C72 26 72 26 72 26 Z " fill="#000000" transform="translate(630,91)"/>
<path d="M0 0 C8.1675 -0.061875 16.335 -0.12375 24.75 -0.1875 C28.57996582 -0.22846802 28.57996582 -0.22846802 32.48730469 -0.27026367 C34.54882334 -0.27903912 36.61034726 -0.28668054 38.671875 -0.29296875 C39.71166504 -0.30831665 40.75145508 -0.32366455 41.82275391 -0.33947754 C51.31293986 -0.34280509 61.51766245 0.64001308 69 7 C75.80152505 14.19018362 76.57186655 20.76051319 76.34375 30.3984375 C75.7258446 36.87240084 73.52369751 40.7991194 68.875 45.25 C64.72501086 48.55914167 59.98110311 50.29620215 55 52 C55.680625 52.66 56.36125 53.32 57.0625 54 C64.12279284 61.12563168 69.61436336 68.70406459 74.875 77.25 C75.55046875 78.32507813 76.2259375 79.40015625 76.921875 80.5078125 C82.30011139 89.16914901 82.30011139 89.16914901 83 93 C75.34022321 95.0327388 67.44214383 96.26093323 60 93 C52.54511415 86.64786506 47.63042218 76.75106971 43.02835083 68.2532959 C38.80989617 60.50325684 38.80989617 60.50325684 31.75 55.6875 C27.50922355 54.91002432 23.29401448 54.37000578 19 54 C19.2475 55.5159375 19.2475 55.5159375 19.5 57.0625 C20.96243999 68.95004789 19.84227745 81.10283107 19 93 C12.73 93 6.46 93 0 93 C0 62.31 0 31.62 0 0 Z M19 16 C19 23.26 19 30.52 19 38 C23.18153431 38.06905286 27.3610734 38.12872548 31.54272461 38.16479492 C32.96369141 38.1798376 34.38461213 38.20027704 35.80541992 38.22631836 C37.85346886 38.26290347 39.9009015 38.27977097 41.94921875 38.29296875 C43.17987061 38.3086792 44.41052246 38.32438965 45.6784668 38.34057617 C49.28126253 37.97116051 51.12346021 37.15248151 54 35 C56.68545341 31.00855102 56.82044669 26.64919793 56 22 C53.3293167 18.43908893 51.33688455 16.7393924 47 16 C44.82940968 15.91852402 42.65647149 15.89247058 40.484375 15.90234375 C38.60878906 15.90717773 38.60878906 15.90717773 36.6953125 15.91210938 C35.39335937 15.92048828 34.09140625 15.92886719 32.75 15.9375 C31.43257813 15.94201172 30.11515625 15.94652344 28.7578125 15.95117188 C25.50518896 15.96295674 22.25258876 15.9808921 19 16 Z " fill="#000000" transform="translate(286,91)"/>
<path d="M0 0 C11.364375 -0.020625 22.72875 -0.04125 34.4375 -0.0625 C38.03068115 -0.071604 41.6238623 -0.08070801 45.32592773 -0.09008789 C49.70129395 -0.09460449 49.70129395 -0.09460449 51.74720764 -0.09544373 C53.18133351 -0.096983 54.61545806 -0.10050759 56.04957581 -0.10557556 C58.21723695 -0.11285524 60.38481876 -0.11390734 62.55249023 -0.11352539 C63.77604721 -0.115746 64.99960419 -0.11796661 66.26023865 -0.12025452 C69 0 69 0 70 1 C70.1328125 2.85546875 70.1328125 2.85546875 70.125 5.1875 C70.12886719 6.32251953 70.12886719 6.32251953 70.1328125 7.48046875 C69.98200715 10.34133491 69.47097649 13.17414109 69 16 C52.83 16 36.66 16 20 16 C20 22.6 20 29.2 20 36 C35.18 36 50.36 36 66 36 C66 41.28 66 46.56 66 52 C50.82 52 35.64 52 20 52 C20 60.25 20 68.5 20 77 C36.83 77 53.66 77 71 77 C71 82.28 71 87.56 71 93 C47.57 93 24.14 93 0 93 C0 62.31 0 31.62 0 0 Z " fill="#000000" transform="translate(379,91)"/>
<path d="M0 0 C22.77 0 45.54 0 69 0 C69 5.28 69 10.56 69 16 C52.83 16 36.66 16 20 16 C20 22.6 20 29.2 20 36 C23.23683594 35.98839844 26.47367188 35.97679687 29.80859375 35.96484375 C32.92944236 35.95705413 36.05028991 35.95097683 39.17114258 35.94506836 C41.34692873 35.94002692 43.52271147 35.93319393 45.69848633 35.92456055 C48.81853067 35.91248662 51.93853038 35.90676995 55.05859375 35.90234375 C56.52733192 35.89460182 56.52733192 35.89460182 58.02574158 35.88670349 C59.37702904 35.88659019 59.37702904 35.88659019 60.75561523 35.88647461 C61.55281479 35.884254 62.35001434 35.88203339 63.17137146 35.87974548 C65 36 65 36 66 37 C66 41.95 66 46.9 66 52 C50.82 52 35.64 52 20 52 C20 60.25 20 68.5 20 77 C23.59777344 76.98839844 27.19554687 76.97679687 30.90234375 76.96484375 C34.37068595 76.95705443 37.83902719 76.95097696 41.30737305 76.94506836 C43.72567172 76.94002651 46.14396733 76.93319322 48.56225586 76.92456055 C52.02979283 76.91248843 55.49728966 76.90677037 58.96484375 76.90234375 C60.05337143 76.89718246 61.14189911 76.89202118 62.26341248 76.88670349 C63.76485558 76.88659019 63.76485558 76.88659019 65.29663086 76.88647461 C66.62566689 76.88314369 66.62566689 76.88314369 67.98155212 76.87974548 C70 77 70 77 71 78 C71 82.95 71 87.9 71 93 C47.57 93 24.14 93 0 93 C-1.125 85.125 -1.125 85.125 -1.08229065 81.89332581 C-1.07525116 81.16008591 -1.06821167 80.42684601 -1.06095886 79.67138672 C-1.04801285 78.89239014 -1.03506683 78.11339355 -1.02172852 77.31079102 C-1.01212097 76.47096176 -1.00251343 75.63113251 -0.99261475 74.76585388 C-0.95984201 72.01178011 -0.91942817 69.25787596 -0.87890625 66.50390625 C-0.85458385 64.58577559 -0.83074138 62.66763879 -0.80735779 60.74949646 C-0.7447277 55.7172645 -0.67560205 50.68514218 -0.60510254 45.65301514 C-0.52175234 39.60654308 -0.44650694 33.55996533 -0.36989594 27.51340485 C-0.25279084 18.34217421 -0.12542057 9.17113767 0 0 Z " fill="#000000" transform="translate(544,91)"/>
<path d="M0 0 C6.33130025 -0.07673706 12.66247839 -0.12888486 18.99414062 -0.16479492 C21.14327476 -0.17978213 23.29237883 -0.20017887 25.44140625 -0.22631836 C53.81372106 -0.56251447 53.81372106 -0.56251447 63 6.5625 C69.59419925 13.18063464 71.35271554 19.84227944 71.5 29.0625 C71.38324651 37.58649401 69.53246073 43.48063649 63.8125 49.8125 C54.40560704 58.49423633 43.12334658 58.15094673 31.0625 58.0625 C27.081875 58.041875 23.10125 58.02125 19 58 C19 69.55 19 81.1 19 93 C12.73 93 6.46 93 0 93 C-0.89842075 81.77427811 -1.06659876 70.72716369 -0.87890625 59.47265625 C-0.85453048 57.7453229 -0.83069105 56.0179819 -0.80735779 54.29063416 C-0.74525691 49.79773078 -0.67599084 45.304967 -0.60510254 40.81219482 C-0.53373994 36.20624008 -0.46933304 31.60018827 -0.40429688 26.99414062 C-0.27624209 17.99598702 -0.14059847 8.99796575 0 0 Z M19 16 C19 24.58 19 33.16 19 42 C22.155625 42.04125 25.31125 42.0825 28.5625 42.125 C29.5429126 42.14320801 30.5233252 42.16141602 31.53344727 42.18017578 C37.72897858 42.21912163 43.38153217 42.13611849 48.375 38.0625 C51.25570652 34.40621865 51.4056422 30.77797917 51.33984375 26.2890625 C50.73441603 22.21112405 49.10338504 20.70720822 46 18 C40.16141942 15.7804365 34.75299949 15.7600314 28.5625 15.875 C23.8290625 15.936875 23.8290625 15.936875 19 16 Z " fill="#000000" transform="translate(200,91)"/>
<path d="M0 0 C55.44489796 0 55.44489796 0 64 8 C70.79926917 17.05616944 71.84722645 24.80450768 71 36 C69.39158009 43.17975394 65.92280426 48.62480471 60 53 C50.72169119 58.38634564 41.51283089 58.13913621 31.0625 58.0625 C27.081875 58.041875 23.10125 58.02125 19 58 C19 69.55 19 81.1 19 93 C12.73 93 6.46 93 0 93 C0 62.31 0 31.62 0 0 Z M19 16 C19 24.58 19 33.16 19 42 C22.155625 42.04125 25.31125 42.0825 28.5625 42.125 C29.5429126 42.14320801 30.5233252 42.16141602 31.53344727 42.18017578 C38.24362504 42.22235676 43.63621392 42.01173283 48.9375 37.5 C52.00293813 33.38239828 51.71248586 28.89731662 51 24 C50.27808606 20.96276905 50.27808606 20.96276905 48 19 C41.58028442 15.962659 35.42571011 15.61414086 28.4375 15.8125 C25.323125 15.874375 22.20875 15.93625 19 16 Z " fill="#000000" transform="translate(738,91)"/>
<path d="M0 0 C0.86375244 -0.01393799 1.72750488 -0.02787598 2.61743164 -0.04223633 C8.89326246 0.00430503 15.77808647 0.60763443 20.75756836 4.80322266 C22.81905125 7.28625855 22.99984523 9.17960659 23.0625 12.375 C18.56641924 21.36716152 9.23528909 27.13093655 0.02905273 30.4777832 C-3.3415195 31.54290524 -6.72368093 32.53763054 -10.125 33.5 C-11.32954834 33.84619385 -12.53409668 34.1923877 -13.77514648 34.54907227 C-17.15765336 35.51023802 -20.54496874 36.44991046 -23.9375 37.375 C-24.70416992 37.58463379 -25.47083984 37.79426758 -26.26074219 38.01025391 C-38.56262351 41.27510434 -51.28094114 41.44642528 -63.9375 41.375 C-63.90627057 43.34256452 -63.90627057 43.34256452 -62.9375 45.375 C-46.41334136 52.48921792 -25.18811156 45.09934519 -9.53515625 38.90234375 C-6.46621595 37.67196755 -3.41569545 36.42010227 -0.38598633 35.09594727 C0.51740479 34.71365967 1.4207959 34.33137207 2.3515625 33.9375 C3.14256348 33.58816406 3.93356445 33.23882812 4.74853516 32.87890625 C7.76272773 32.22251319 9.3503257 33.02521744 12.0625 34.375 C10.09425339 40.42558327 6.45301318 42.39729564 1.0625 45.375 C-2.31375417 46.95837849 -5.7457212 48.2909309 -9.25 49.5625 C-10.6407373 50.07502319 -10.6407373 50.07502319 -12.05957031 50.59790039 C-27.7379767 56.2857846 -46.87905466 61.08388567 -63.12109375 54.48828125 C-66.49704669 52.71257212 -69.21982202 50.81035596 -70.9375 47.375 C-71.18645157 44.26310534 -71.34207737 42.18415474 -69.9375 39.375 C-70.50597656 39.22804687 -71.07445313 39.08109375 -71.66015625 38.9296875 C-77.35663114 37.27495189 -82.27890029 35.23798347 -85.9375 30.375 C-86.7803192 26.08428406 -86.32159724 24.11364854 -84.3125 20.25 C-78.23003816 12.88701987 -70.42853629 9.32772379 -61.9375 5.375 C-60.78121094 4.82392578 -60.78121094 4.82392578 -59.6015625 4.26171875 C-54.38867885 2.01698722 -49.49318685 2.06761569 -43.9375 2.375 C-43.9375 3.365 -43.9375 4.355 -43.9375 5.375 C-47.31837623 7.84410449 -51.16822778 9.45306652 -54.96679688 11.1784668 C-65.70797816 15.62639715 -65.70797816 15.62639715 -74.9375 22.375 C-75.70199984 24.96919069 -75.70199984 24.96919069 -75.9375 27.375 C-52.39330002 36.87529122 -23.82230418 29.20798889 -1.12744141 20.26806641 C3.45282197 18.27815591 7.91777939 16.16912406 12.0625 13.375 C12.3925 12.385 12.7225 11.395 13.0625 10.375 C2.9552203 5.32136015 -18.22261527 10.5292454 -28.9375 13.375 C-32.36208648 14.53885702 -35.66886232 15.82711148 -38.9375 17.375 C-38.9375 18.035 -38.9375 18.695 -38.9375 19.375 C-33.47612186 19.47252461 -28.34494018 19.14749145 -22.9375 18.375 C-23.0625 20.6875 -23.0625 20.6875 -23.9375 23.375 C-30.86636828 27.65003945 -40.25563517 28.55775023 -48.1875 26.6875 C-50.9375 25.375 -50.9375 25.375 -52.375 23.25 C-52.560625 22.63125 -52.74625 22.0125 -52.9375 21.375 C-46.77098498 10.84053685 -38.52581391 6.61308567 -26.9375 3.375 C-17.93179906 1.02198895 -9.29259177 0.09576616 0 0 Z " fill="#020202" transform="translate(154.9375,71.625)"/>
<path d="M0 0 C0.71055038 -0.00175232 1.42110077 -0.00350464 2.15318298 -0.00531006 C4.51295378 -0.00972824 6.87265025 -0.00679072 9.23242188 -0.00341797 C10.86527521 -0.00409102 12.49812845 -0.00506105 14.13098145 -0.00631714 C17.55754549 -0.00779407 20.98408351 -0.00563973 24.41064453 -0.00097656 C28.81271689 0.00472073 33.21472828 0.00144169 37.6167984 -0.00454903 C40.98985253 -0.00815478 44.3628921 -0.00701599 47.73594666 -0.00442123 C49.35953275 -0.003752 50.98312014 -0.00458025 52.60670471 -0.00690079 C54.87195358 -0.00942755 57.13710238 -0.00558641 59.40234375 0 C61.33974426 0.00119339 61.33974426 0.00119339 63.31628418 0.00241089 C66.20117188 0.12939453 66.20117188 0.12939453 67.20117188 1.12939453 C67.3005605 2.89792746 67.33086411 4.67057728 67.32617188 6.44189453 C67.33003906 7.89015625 67.33003906 7.89015625 67.33398438 9.36767578 C67.20117188 12.12939453 67.20117188 12.12939453 66.20117188 16.12939453 C57.29117188 16.12939453 48.38117187 16.12939453 39.20117188 16.12939453 C39.20117188 41.53939453 39.20117188 66.94939453 39.20117188 93.12939453 C32.93117188 93.12939453 26.66117187 93.12939453 20.20117188 93.12939453 C20.20117188 67.71939453 20.20117188 42.30939453 20.20117188 16.12939453 C10.96117187 16.12939453 1.72117187 16.12939453 -7.79882812 16.12939453 C-7.81945312 13.67501953 -7.84007812 11.22064453 -7.86132812 8.69189453 C-7.87043213 7.91789307 -7.87953613 7.1438916 -7.88891602 6.34643555 C-7.89607726 4.60717736 -7.84907515 2.8679415 -7.79882812 1.12939453 C-5.89712108 -0.77231251 -2.52035099 0.00155247 0 0 Z " fill="#000000" transform="translate(466.798828125,90.87060546875)"/>
<path d="M0 0 C0 2.71147415 -0.46485619 4.43863878 -2.35546875 6.421875 C-15.20107457 16.61071373 -29.7308074 21.68850815 -46 21 C-43.14281517 24.28576255 -40.89271103 24.80725313 -36.66015625 25.23828125 C-27.49389937 25.5001743 -19.2652751 23.0685857 -11 19.1875 C-7.74832899 17.90038023 -6.27383889 17.90872037 -3 19 C-3.74474599 23.26619925 -5.56239345 24.88006786 -8.83203125 27.54296875 C-15.98395545 32.34957727 -23.93302966 34.13741478 -32.4375 34.1875 C-33.52933594 34.20167969 -34.62117188 34.21585938 -35.74609375 34.23046875 C-39.13335377 33.99055478 -41.83858571 33.20639188 -45 32 C-44.05551579 36.19023104 -44.05551579 36.19023104 -41.2734375 39.21875 C-38.40375312 40.20489583 -36.38229098 39.98206621 -33.375 39.625 C-27.88535834 39.05175732 -22.51490191 38.89019001 -17 39 C-16.505 41.475 -16.505 41.475 -16 44 C-22.39566422 49.99593521 -29.67190115 50.44261547 -38.078125 50.3359375 C-42.42388994 49.83629073 -45.29672803 48.27893659 -49 46 C-48.1395861 50.33229715 -48.1395861 50.33229715 -46 54 C-44.58429877 54.08651611 -43.164405 54.10704904 -41.74609375 54.09765625 C-40.89208984 54.09443359 -40.03808594 54.09121094 -39.15820312 54.08789062 C-38.26037109 54.07951172 -37.36253906 54.07113281 -36.4375 54.0625 C-35.53580078 54.05798828 -34.63410156 54.05347656 -33.70507812 54.04882812 C-31.46998686 54.03700225 -29.23502563 54.0205222 -27 54 C-26.34 55.32 -25.68 56.64 -25 58 C-29.16837538 63.00205046 -33.63716145 63.77496776 -39.9375 64.375 C-44.58045787 64.2754434 -48.06587302 62.29952492 -52 60 C-52.66 59.67 -53.32 59.34 -54 59 C-55.47047336 62.91063224 -55.47047336 62.91063224 -56 67 C-52.7 67 -49.4 67 -46 67 C-45.34 68.32 -44.68 69.64 -44 71 C-45.4375 73 -45.4375 73 -48 75 C-51.02811015 75.37168139 -53.96294753 75.20135154 -57 75 C-57.99 75 -58.98 75 -60 75 C-60 75.66 -60 76.32 -60 77 C-58.02 77 -56.04 77 -54 77 C-53.67 77.99 -53.34 78.98 -53 80 C-54.5625 82.0625 -54.5625 82.0625 -57 84 C-60.91243098 84 -63.21506933 83.51020494 -66.5 81.375 C-68 79 -68 79 -68 75.375 C-67.67 74.26125 -67.34 73.1475 -67 72 C-66.33097656 71.7009375 -65.66195312 71.401875 -64.97265625 71.09375 C-64.32167969 70.7328125 -63.67070313 70.371875 -63 70 C-62.40837606 67.71250707 -62.40837606 67.71250707 -62.4375 65.125 C-62.33477268 61.0763352 -61.79797956 59.00171594 -59 56 C-56.8125 55.25 -56.8125 55.25 -55 55 C-55.495 53.515 -55.495 53.515 -56 52 C-56.2295082 45.45901639 -56.2295082 45.45901639 -55 43 C-53.515 42.505 -53.515 42.505 -52 42 C-52.02320312 41.31292969 -52.04640625 40.62585938 -52.0703125 39.91796875 C-52.08835937 39.01691406 -52.10640625 38.11585938 -52.125 37.1875 C-52.14820312 36.29417969 -52.17140625 35.40085938 -52.1953125 34.48046875 C-52 32 -52 32 -50 29 C-50.495 28.071875 -50.99 27.14375 -51.5 26.1875 C-53 23 -53 23 -53 20 C-55.16422833 18.40415027 -55.16422833 18.40415027 -57.875 17 C-61.28271686 15.13594975 -62.80806343 14.28790485 -65 11 C-65.125 8.3125 -65.125 8.3125 -65 6 C-63.22265625 5.3515625 -63.22265625 5.3515625 -61 5 C-59.18359375 5.9609375 -59.18359375 5.9609375 -57.4375 7.375 C-50.8340995 12.64007211 -42.06797393 11.48041811 -34 11 C-24.62208249 9.76606349 -16.1055385 4.95745467 -7.7265625 0.80029297 C-4.54906973 -0.67253244 -3.41827437 -1.13942479 0 0 Z " fill="#020202" transform="translate(162,124)"/>
<path d="" fill="#FFFFFF" transform="translate(0,0)"/>
<path d="" fill="#FFFFFF" transform="translate(0,0)"/>
<path d="" fill="#FFFFFF" transform="translate(0,0)"/>
<path d="" fill="#FFFFFF" transform="translate(0,0)"/>
<path d="" fill="#FFFFFF" transform="translate(0,0)"/>
<path d="" fill="#FFFFFF" transform="translate(0,0)"/>
<path d="" fill="#FFFFFF" transform="translate(0,0)"/>
<path d="" fill="#FFFFFF" transform="translate(0,0)"/>
<path d="" fill="#FFFFFF" transform="translate(0,0)"/>
<path d="" fill="#FFFFFF" transform="translate(0,0)"/>
<path d="" fill="#FFFFFF" transform="translate(0,0)"/>
<path d="" fill="#FFFFFF" transform="translate(0,0)"/>
<path d="" fill="#FFFFFF" transform="translate(0,0)"/>
<path d="" fill="#FFFFFF" transform="translate(0,0)"/>
<path d="" fill="#FFFFFF" transform="translate(0,0)"/>
<path d="" fill="#FFFFFF" transform="translate(0,0)"/>
<path d="" fill="#FFFFFF" transform="translate(0,0)"/>
<path d="" fill="#FFFFFF" transform="translate(0,0)"/>
<path d="" fill="#FFFFFF" transform="translate(0,0)"/>
<path d="" fill="#FFFFFF" transform="translate(0,0)"/>
<path d="" fill="#FFFFFF" transform="translate(0,0)"/>
<path d="" fill="#FFFFFF" transform="translate(0,0)"/>
<path d="" fill="#FFFFFF" transform="translate(0,0)"/>
<path d="" fill="#FFFFFF" transform="translate(0,0)"/>
<path d="" fill="#FFFFFF" transform="translate(0,0)"/>
<path d="" fill="#FFFFFF" transform="translate(0,0)"/>
<path d="" fill="#FFFFFF" transform="translate(0,0)"/>
<path d="" fill="#FFFFFF" transform="translate(0,0)"/>
<path d="" fill="#FFFFFF" transform="translate(0,0)"/>
<path d="" fill="#FFFFFF" transform="translate(0,0)"/>
<path d="" fill="#FFFFFF" transform="translate(0,0)"/>
<path d="" fill="#FFFFFF" transform="translate(0,0)"/>
<path d="" fill="#FFFFFF" transform="translate(0,0)"/>
<path d="" fill="#FFFFFF" transform="translate(0,0)"/>
<path d="" fill="#FFFFFF" transform="translate(0,0)"/>
<path d="" fill="#FFFFFF" transform="translate(0,0)"/>
<path d="" fill="#FFFFFF" transform="translate(0,0)"/>
<path d="" fill="#FFFFFF" transform="translate(0,0)"/>
<path d="" fill="#FFFFFF" transform="translate(0,0)"/>
<path d="" fill="#FFFFFF" transform="translate(0,0)"/>
<path d="" fill="#FFFFFF" transform="translate(0,0)"/>
<path d="" fill="#FFFFFF" transform="translate(0,0)"/>
<path d="" fill="#FFFFFF" transform="translate(0,0)"/>
<path d="" fill="#FFFFFF" transform="translate(0,0)"/>
<path d="" fill="#FFFFFF" transform="translate(0,0)"/>
<path d="" fill="#FFFFFF" transform="translate(0,0)"/>
<path d="" fill="#FFFFFF" transform="translate(0,0)"/>
<path d="" fill="#FFFFFF" transform="translate(0,0)"/>
<path d="" fill="#FFFFFF" transform="translate(0,0)"/>
<path d="" fill="#FFFFFF" transform="translate(0,0)"/>
<path d="" fill="#FFFFFF" transform="translate(0,0)"/>
<path d="" fill="#FFFFFF" transform="translate(0,0)"/>
<path d="" fill="#FFFFFF" transform="translate(0,0)"/>
<path d="" fill="#FFFFFF" transform="translate(0,0)"/>
<path d="" fill="#FFFFFF" transform="translate(0,0)"/>
<path d="" fill="#FFFFFF" transform="translate(0,0)"/>
<path d="" fill="#FFFFFF" transform="translate(0,0)"/>
<path d="" fill="#FFFFFF" transform="translate(0,0)"/>
<path d="" fill="#FFFFFF" transform="translate(0,0)"/>
<path d="" fill="#FFFFFF" transform="translate(0,0)"/>
<path d="" fill="#FFFFFF" transform="translate(0,0)"/>
</svg>
