<?xml version="1.0" standalone="no"?>
<!DOCTYPE svg PUBLIC "-//W3C//DTD SVG 20010904//EN"
 "http://www.w3.org/TR/2001/REC-SVG-20010904/DTD/svg10.dtd">
<svg version="1.0" xmlns="http://www.w3.org/2000/svg"
 width="128.000000pt" height="128.000000pt" viewBox="0 0 128.000000 128.000000"
 preserveAspectRatio="xMidYMid meet">

<g transform="translate(0.000000,128.000000) scale(0.100000,-0.100000)"
fill="#000000" stroke="none">
<path d="M730 1174 c-112 -24 -162 -47 -213 -96 -27 -25 -47 -52 -45 -60 13
-39 136 -52 197 -20 62 31 52 43 -29 36 -67 -7 -72 -6 -69 12 6 32 121 63 281
76 144 11 168 7 155 -26 -17 -42 -286 -135 -454 -156 -136 -18 -283 5 -283 43
0 33 122 111 243 156 15 6 27 15 27 21 0 34 -92 14 -211 -46 -77 -38 -129 -92
-129 -133 0 -35 53 -86 100 -96 28 -6 31 -10 25 -35 -9 -41 10 -69 62 -92 67
-30 210 -27 326 7 165 47 277 105 277 141 0 27 -37 22 -138 -21 -117 -49 -262
-85 -343 -85 -80 0 -139 20 -139 47 0 16 11 18 98 20 139 2 375 59 492 118 58
30 120 92 120 121 0 30 -28 59 -69 73 -46 15 -202 13 -281 -5z"/>
<path d="M848 735 c-92 -47 -160 -65 -243 -65 -60 0 -76 4 -105 25 -41 31 -70
33 -70 5 0 -24 27 -53 69 -75 21 -11 31 -23 31 -39 0 -13 6 -29 14 -35 12 -10
12 -16 0 -39 -8 -16 -12 -39 -8 -55 4 -21 0 -32 -17 -45 -47 -39 8 -143 83
-157 65 -12 155 26 141 60 -4 13 -19 14 -83 9 -73 -6 -78 -5 -94 17 -17 24
-22 59 -8 59 4 0 19 -8 32 -17 47 -33 186 -16 225 27 31 34 10 42 -94 35 -106
-7 -125 -1 -137 48 -6 27 -6 27 22 16 46 -17 144 -13 209 10 59 21 115 64 115
88 0 20 -22 16 -105 -17 -107 -42 -245 -41 -245 3 0 8 14 11 43 9 102 -8 369
123 330 162 -12 12 -39 5 -105 -29z"/>
<path d="M466 288 c-9 -12 -16 -36 -16 -53 0 -19 -7 -35 -19 -42 -30 -19 -33
-52 -6 -79 26 -26 64 -31 83 -12 21 21 13 38 -18 38 -20 0 -30 5 -30 15 0 11
10 13 48 9 53 -6 90 12 79 40 -4 11 -18 16 -46 16 -43 0 -58 18 -41 50 23 43
-7 58 -34 18z"/>
</g>
</svg>
